# xmcd
#
# Track frame offsets: 
#        150
#        2600
#        22825
#        39205
#        50400
#        67230
#        86635
#        105060
#        127965
#        147125
#        164750
#        178125
#        192020
#        215475
#        233060
#        250725
#
# Disc length: 3733 seconds
#
# Revision: 0
# Processed by: cddbd v1.5.2PL0 Copyright (c) Steve Scherf et al.
# Submitted via: ExactAudioCopy v0.99pb5
#
DISCID=cb0e9310
DTITLE=Second String Band - Live at Shakedown Street
DYEAR=2011
DGENRE=Acoustic
TTITLE0=Intro
TTITLE1=No Time For Us To Waste
TTITLE2=Won't You Think About Me
TTITLE3=Play Another Game
TTITLE4=I'm On My Way
TTITLE5=The Door Into Summer
TTITLE6=All Alone
TTITLE7=Walls Of Time
TTITLE8=Run Molly Run
TTITLE9=Can't Find The One
TTITLE10=Bowlin' Bop
TTITLE11=Is It Any Wonder...
TTITLE12=She's In My Head
TTITLE13=Tumblin' Down
TTITLE14=Bus Stop Girl
TTITLE15=Musket On The Mantle
EXTD=
EXTT0=
EXTT1=
EXTT2=
EXTT3=
EXTT4=
EXTT5=
EXTT6=
EXTT7=
EXTT8=
EXTT9=
EXTT10=
EXTT11=
EXTT12=
EXTT13=
EXTT14=
EXTT15=
PLAYORDER=
